<?xml version="1.0" encoding="utf-8"?>
<!-- Generator: Adobe Illustrator 23.0.3, SVG Export Plug-In . SVG Version: 6.00 Build 0)  -->
<svg version="1.1" id="Layer_1" xmlns="http://www.w3.org/2000/svg" xmlns:xlink="http://www.w3.org/1999/xlink" x="0px" y="0px"
	 viewBox="0 0 464.9 272.3" style="enable-background:new 0 0 464.9 272.3;" xml:space="preserve">
<style type="text/css">
	.st0{opacity:0.8;}
	.st1{fill:none;stroke:#C93D3D;stroke-width:3;stroke-miterlimit:10;}
	.st2{fill:none;stroke:#C93D3D;stroke-width:3;stroke-miterlimit:10;stroke-dasharray:2.9448,2.9448;}
	.st3{fill:none;stroke:#C93D3D;stroke-width:3;stroke-miterlimit:10;stroke-dasharray:2.8673,2.8673;}
	.st4{fill:none;stroke:#C93D3D;stroke-width:3;stroke-miterlimit:10;stroke-dasharray:2.9928,2.9928;}
	.st5{fill:#FFFFFF;stroke:#000000;stroke-miterlimit:10;}
	.st6{fill:none;stroke:#1D9328;stroke-width:3;stroke-miterlimit:10;}
	.st7{fill:#C93D3D;stroke:#C93D3D;stroke-width:3;stroke-miterlimit:10;}
	.st8{fill:none;stroke:#F2D624;stroke-width:5;stroke-miterlimit:10;}
	.st9{fill:#1D9328;}
</style>
<g>
	<g class="st0">
		<g>
			<path class="st1" d="M344.2,161.1c0.3,0.4,0.6,0.8,0.8,1.2"/>
			<path class="st2" d="M346.7,164.8c13.2,20.5,21.2,45,21.8,70.9"/>
			<path class="st1" d="M368.5,237.2c0,0.5,0,1,0,1.5h1.5"/>
			<line class="st3" x1="372.9" y1="238.7" x2="434.5" y2="238.7"/>
			<path class="st1" d="M436,238.7h1.5c0-0.5,0-1,0-1.5"/>
			<path class="st4" d="M437.4,234.2c-0.9-43.1-15.4-83.3-39.1-115.9"/>
			<path class="st1" d="M397.5,117c-0.3-0.4-0.6-0.8-0.9-1.2"/>
		</g>
	</g>
	<path class="st6" d="M333.2,147.2c-24.9-27.4-60.8-44.7-100.8-44.7c-75.2,0-136.1,60.9-136.1,136.1H27.4c0-113.2,91.8-205,205-205
		c60.7,0,115.3,26.4,152.9,68.4"/>
	<line class="st8" x1="329.1" y1="161.6" x2="400.1" y2="100"/>
</g>
</svg>
